<?xml version="1.0" encoding="utf-8"?>
<svg viewBox="0 0 500 500" xmlns="http://www.w3.org/2000/svg">
  <ellipse style="stroke: rgb(0, 0, 0); paint-order: fill; stroke-width: 4px;" cx="250" cy="250" rx="190.053" ry="190.053"/>
  <path d="M 229.99 261.154 Q 229.99 272.554 236.14 278.779 Q 242.29 285.004 251.74 285.004 Q 262.39 285.004 267.49 279.229 Q 272.59 273.454 272.59 261.454 L 293.74 261.454 Q 293.74 274.654 288.415 284.179 Q 283.09 293.704 273.79 298.579 Q 264.49 303.454 252.79 303.454 L 250.69 303.454 Q 237.79 303.454 227.59 298.204 Q 217.39 292.954 211.54 282.679 Q 205.69 272.404 205.69 257.854 L 205.69 243.154 Q 205.69 229.054 211.54 218.704 Q 217.39 208.354 227.515 202.954 Q 237.64 197.554 250.09 197.554 L 252.19 197.554 Q 264.19 197.554 273.565 202.279 Q 282.94 207.004 288.34 216.529 Q 293.74 226.054 293.74 239.854 L 271.69 239.854 Q 271.69 228.154 266.515 222.079 Q 261.34 216.004 251.59 216.004 Q 242.14 216.004 236.065 222.229 Q 229.99 228.454 229.99 239.854 L 229.99 261.154 Z" transform="matrix(1.198276, 0, 0, 1.273632, -49.2239, -68.455948)" style="fill: rgb(255, 255, 255); white-space: pre;"/>
</svg>