<?xml version="1.0" encoding="utf-8"?>
<svg viewBox="0 0 500 500" xmlns="http://www.w3.org/2000/svg">
  <ellipse style="stroke: rgb(0, 0, 0); paint-order: fill; stroke-width: 4px;" cx="250" cy="250" rx="190.053" ry="190.053"/>
  <path d="M 260.29 199.054 Q 267.64 199.054 273.79 202.429 Q 279.94 205.804 283.615 211.579 Q 287.29 217.354 287.29 224.254 Q 287.29 234.754 282.34 240.454 Q 277.39 246.154 269.74 248.254 L 269.74 249.004 Q 277.99 250.654 283.84 256.654 Q 289.69 262.654 289.69 274.504 Q 289.69 282.004 285.865 288.304 Q 282.04 294.604 275.515 298.279 Q 268.99 301.954 261.19 301.954 L 209.29 301.954 L 209.29 199.054 Z M 253.69 240.754 Q 258.19 240.754 261.64 237.304 Q 265.09 233.854 265.09 228.604 Q 265.09 222.304 261.64 219.529 Q 258.19 216.754 253.69 216.754 L 231.19 216.754 L 231.19 240.754 L 253.69 240.754 Z M 255.34 283.354 Q 260.29 283.354 263.74 279.904 Q 267.19 276.454 267.19 271.504 L 267.19 270.154 Q 267.19 265.204 263.74 261.754 Q 260.29 258.304 255.34 258.304 L 231.19 258.304 L 231.19 283.354 L 255.34 283.354 Z" transform="matrix(1.198276, 0, 0, 1.273632, -45.810654, -68.60154)" style="fill: rgb(255, 255, 255); white-space: pre;"/>
</svg>