<?xml version="1.0" encoding="utf-8"?>
<svg viewBox="0 0 500 500" xmlns="http://www.w3.org/2000/svg">
  <ellipse style="stroke: rgb(0, 0, 0); paint-order: fill; fill: rgb(255, 255, 255); stroke-width: 4px;" cx="250" cy="250" rx="190.053" ry="190.053"/>
  <path d="M 248.29 199.054 Q 261.04 199.054 271.465 204.454 Q 281.89 209.854 288.04 220.204 Q 294.19 230.554 294.19 244.654 L 294.19 256.354 Q 294.19 270.454 288.04 280.804 Q 281.89 291.154 271.465 296.554 Q 261.04 301.954 248.29 301.954 L 209.29 301.954 L 209.29 199.054 L 248.29 199.054 Z M 232.54 283.504 L 248.29 283.504 Q 257.89 283.504 263.89 277.279 Q 269.89 271.054 269.89 259.654 L 269.89 241.354 Q 269.89 229.954 263.89 223.729 Q 257.89 217.504 248.29 217.504 L 232.54 217.504 Z" transform="matrix(1.198276, 0, 0, 1.273632, -49.496071, -68.455948)" style="fill: rgb(51, 51, 51); white-space: pre;"/>
</svg>